<svg width="27" height="27" viewBox="0 0 27 27" fill="none" xmlns="http://www.w3.org/2000/svg">
<path d="M13.5 2.25C11.275 2.25 9.09989 2.9098 7.24984 4.14597C5.39979 5.38213 3.95785 7.13914 3.10636 9.19481C2.25487 11.2505 2.03209 13.5125 2.46617 15.6948C2.90025 17.8771 3.97171 19.8816 5.54505 21.455C7.11839 23.0283 9.12295 24.0998 11.3052 24.5338C13.4875 24.9679 15.7495 24.7451 17.8052 23.8936C19.8609 23.0422 21.6179 21.6002 22.854 19.7502C24.0902 17.9001 24.75 15.725 24.75 13.5C24.75 12.0226 24.459 10.5597 23.8936 9.19481C23.3283 7.8299 22.4996 6.58971 21.455 5.54505C20.4103 4.50039 19.1701 3.67172 17.8052 3.10636C16.4403 2.54099 14.9774 2.25 13.5 2.25ZM18 14.625H13.5C13.2016 14.625 12.9155 14.5065 12.7045 14.2955C12.4935 14.0845 12.375 13.7984 12.375 13.5V9C12.375 8.70163 12.4935 8.41548 12.7045 8.2045C12.9155 7.99353 13.2016 7.875 13.5 7.875C13.7984 7.875 14.0845 7.99353 14.2955 8.2045C14.5065 8.41548 14.625 8.70163 14.625 9V12.375H18C18.2984 12.375 18.5845 12.4935 18.7955 12.7045C19.0065 12.9155 19.125 13.2016 19.125 13.5C19.125 13.7984 19.0065 14.0845 18.7955 14.2955C18.5845 14.5065 18.2984 14.625 18 14.625Z" fill="#231F20"/>
</svg>
