<svg width="48" height="56" viewBox="0 0 48 56" fill="none" xmlns="http://www.w3.org/2000/svg">
<path d="M41.6748 22.8374H37.6007V18.7633H0.934082V43.2078C0.934082 46.4493 2.22178 49.5581 4.51389 51.8502C6.806 54.1423 9.91477 55.43 13.1563 55.43H25.3785C28.2648 55.4271 31.0568 54.4028 33.2603 52.5386C35.4637 50.6745 36.9364 48.0907 37.4174 45.2448H41.6748C43.2956 45.2448 44.85 44.601 45.996 43.4549C47.1421 42.3088 47.7859 40.7545 47.7859 39.1337V28.9485C47.7859 27.3277 47.1421 25.7734 45.996 24.6273C44.85 23.4812 43.2956 22.8374 41.6748 22.8374ZM17.2304 32.2485V37.0967H13.1563V32.2485L15.1933 31.23L17.2304 32.2485ZM25.3785 51.3559H13.1563C10.9953 51.3559 8.92277 50.4974 7.39469 48.9694C5.86662 47.4413 5.00816 45.3688 5.00816 43.2078V22.8374H13.1563V27.6855L9.08223 29.7226V41.1707H21.3045V29.7226L17.2304 27.6855V22.8374H33.5267V43.2078C33.5267 45.3688 32.6682 47.4413 31.1401 48.9694C29.6121 50.4974 27.5396 51.3559 25.3785 51.3559ZM43.7119 39.1337C43.7119 39.6739 43.4972 40.1921 43.1152 40.5741C42.7332 40.9561 42.2151 41.1707 41.6748 41.1707H37.6007V26.9115H41.6748C42.2151 26.9115 42.7332 27.1261 43.1152 27.5081C43.4972 27.8901 43.7119 28.4083 43.7119 28.9485V39.1337Z" fill="black"/>
<path d="M16.7414 12.6522H20.8155C20.7923 12.2454 20.8916 11.8409 21.1007 11.4911C21.5696 10.5926 21.8076 9.59154 21.7933 8.57814C21.8076 7.56474 21.5696 6.56371 21.1007 5.66518C20.8916 5.31538 20.7923 4.91092 20.8155 4.50407C20.7923 4.09722 20.8916 3.69275 21.1007 3.34296C21.5696 2.44442 21.8076 1.44339 21.7933 0.429993H17.7192C17.7424 0.836843 17.6431 1.24131 17.434 1.5911C16.9652 2.48964 16.7272 3.49067 16.7414 4.50407C16.7272 5.51746 16.9652 6.5185 17.434 7.41703C17.6431 7.76683 17.7424 8.17129 17.7192 8.57814C17.7424 8.98499 17.6431 9.38945 17.434 9.73925C16.9652 10.6378 16.7272 11.6388 16.7414 12.6522Z" fill="black"/>
<path d="M24.8896 12.6522H28.9637C28.9405 12.2454 29.0398 11.8409 29.2489 11.4911C29.7177 10.5926 29.9558 9.59154 29.9415 8.57814C29.9558 7.56474 29.7177 6.56371 29.2489 5.66518C29.0398 5.31538 28.9405 4.91092 28.9637 4.50407C28.9405 4.09722 29.0398 3.69275 29.2489 3.34296C29.7177 2.44442 29.9558 1.44339 29.9415 0.429993H25.8674C25.8906 0.836843 25.7913 1.24131 25.5822 1.5911C25.1134 2.48964 24.8754 3.49067 24.8896 4.50407C24.8754 5.51746 25.1134 6.5185 25.5822 7.41703C25.7913 7.76683 25.8906 8.17129 25.8674 8.57814C25.8906 8.98499 25.7913 9.38945 25.5822 9.73925C25.1134 10.6378 24.8754 11.6388 24.8896 12.6522Z" fill="black"/>
<path d="M8.59338 12.6522H12.6675C12.6442 12.2454 12.7436 11.8409 12.9526 11.4911C13.4215 10.5926 13.6595 9.59154 13.6452 8.57814C13.6595 7.56474 13.4215 6.56371 12.9526 5.66518C12.7436 5.31538 12.6442 4.91092 12.6675 4.50407C12.6442 4.09722 12.7436 3.69275 12.9526 3.34296C13.4215 2.44442 13.6595 1.44339 13.6452 0.429993H9.57116C9.59437 0.836843 9.49503 1.24131 9.28597 1.5911C8.81713 2.48964 8.57912 3.49067 8.59338 4.50407C8.57912 5.51746 8.81713 6.5185 9.28597 7.41703C9.49503 7.76683 9.59437 8.17129 9.57116 8.57814C9.59437 8.98499 9.49503 9.38945 9.28597 9.73925C8.81713 10.6378 8.57912 11.6388 8.59338 12.6522Z" fill="black"/>
</svg>
