<svg width="60" height="60" viewBox="0 0 60 60" fill="none" xmlns="http://www.w3.org/2000/svg">
<g opacity="0.5">
<path d="M55 30C55 29.337 54.7366 28.7011 54.2678 28.2322C53.7989 27.7634 53.163 27.5 52.5 27.5C51.837 27.5 51.2011 27.7634 50.7322 28.2322C50.2634 28.7011 50 29.337 50 30H55ZM30 10C30.663 10 31.2989 9.73661 31.7678 9.26777C32.2366 8.79893 32.5 8.16304 32.5 7.5C32.5 6.83696 32.2366 6.20107 31.7678 5.73223C31.2989 5.26339 30.663 5 30 5V10ZM48.75 50H11.25V55H48.75V50ZM10 48.75V11.25H5V48.75H10ZM50 30V48.75H55V30H50ZM11.25 10H30V5H11.25V10ZM11.25 50C10.9185 50 10.6005 49.8683 10.3661 49.6339C10.1317 49.3995 10 49.0815 10 48.75H5C5 50.4076 5.65848 51.9973 6.83058 53.1694C8.00269 54.3415 9.5924 55 11.25 55V50ZM48.75 55C50.4076 55 51.9973 54.3415 53.1694 53.1694C54.3415 51.9973 55 50.4076 55 48.75H50C50 49.0815 49.8683 49.3995 49.6339 49.6339C49.3995 49.8683 49.0815 50 48.75 50V55ZM10 11.25C10 10.9185 10.1317 10.6005 10.3661 10.3661C10.6005 10.1317 10.9185 10 11.25 10V5C9.5924 5 8.00269 5.65848 6.83058 6.83058C5.65848 8.00269 5 9.5924 5 11.25H10Z" fill="black"/>
<path d="M7.5 43.75L20.8663 31.4975C21.3168 31.0846 21.9029 30.851 22.5139 30.8409C23.125 30.8307 23.7185 31.0448 24.1825 31.4425L40 45M35 38.75L40.9662 32.7837C41.3918 32.3579 41.9567 32.1 42.5572 32.0572C43.1577 32.0145 43.7535 32.1899 44.235 32.5513L52.5 38.75M37.5 15H52.5M45 7.5V22.5" stroke="black" stroke-width="4" stroke-linecap="round" stroke-linejoin="round"/>
</g>
</svg>
