<svg width="27" height="28" viewBox="0 0 27 28" fill="none" xmlns="http://www.w3.org/2000/svg">
<g id="&#240;&#159;&#166;&#134; icon &#34;home&#34;">
<path id="Vector" d="M26.0057 11.3894L14.2058 0.533498C13.8222 0.18058 13.317 -0.0104135 12.7959 0.000438354C12.2747 0.0112903 11.778 0.223148 11.4094 0.591729L0.556935 11.4443L0 12.0011V28H10.4577V18.0176H16.162V28H26.6197V11.9544L26.0057 11.3894ZM12.8368 1.90144C12.8535 1.90144 12.8432 1.90507 12.836 1.91214C12.8286 1.90507 12.82 1.90144 12.8368 1.90144ZM24.7183 26.0986H18.0634V18.0176C18.0634 17.5133 17.8631 17.0297 17.5065 16.6731C17.1499 16.3165 16.6663 16.1162 16.162 16.1162H10.4577C9.95346 16.1162 9.46983 16.3165 9.11325 16.6731C8.75667 17.0297 8.55634 17.5133 8.55634 18.0176V26.0986H1.90141V12.7887L12.8368 1.9362C12.8375 1.93549 12.8376 1.93484 12.8382 1.93412L24.7183 12.7887V26.0986Z" fill="#083B7F"/>
</g>
</svg>
