<svg width="61" height="61" viewBox="0 0 61 61" fill="none" xmlns="http://www.w3.org/2000/svg">
<path fill-rule="evenodd" clip-rule="evenodd" d="M37.0878 6.20631C35.9311 5.9286 34.7316 5.92917 33.1441 5.92992L24.7567 5.93C22.7443 5.92997 21.0834 5.92995 19.7304 6.04049C18.3252 6.1553 17.0334 6.40171 15.8201 7.01994C13.9385 7.97867 12.4087 9.50848 11.4499 11.3901C10.8317 12.6034 10.5853 13.8952 10.4705 15.3004C10.3599 16.6534 10.36 18.3143 10.36 20.3267V41.5333C10.36 43.5457 10.3599 45.2066 10.4705 46.5596C10.5853 47.9648 10.8317 49.2566 11.4499 50.4699C12.4087 52.3515 13.9385 53.8813 15.8201 54.8401C17.0334 55.4583 18.3252 55.7047 19.7304 55.8195C21.0834 55.9301 22.7443 55.93 24.7567 55.93H35.9633C37.9757 55.93 39.6366 55.9301 40.9896 55.8195C42.3948 55.7047 43.6866 55.4583 44.8999 54.8401C46.7815 53.8813 48.3113 52.3515 49.2701 50.4699C49.8883 49.2566 50.1347 47.9648 50.2495 46.5596C50.36 45.2066 50.36 43.5457 50.36 41.5333L50.3601 23.1459C50.3608 21.5584 50.3614 20.3589 50.0837 19.2022C49.8387 18.1818 49.4347 17.2063 48.8864 16.3116C48.2648 15.2973 47.4163 14.4496 46.2932 13.3276L42.9624 9.9968C41.8404 8.87374 40.9927 8.02517 39.9784 7.4036C39.0836 6.85532 38.1082 6.45127 37.0878 6.20631ZM32.86 10.93H24.86C22.7185 10.93 21.2628 10.9319 20.1376 11.0239C19.0415 11.1134 18.481 11.2757 18.09 11.475C17.1492 11.9543 16.3843 12.7192 15.905 13.6601C15.7057 14.0511 15.5434 14.6116 15.4539 15.7076C15.3619 16.8328 15.36 18.2886 15.36 20.43V41.43C15.36 43.5715 15.3619 45.0272 15.4539 46.1524C15.5434 47.2485 15.7057 47.809 15.905 48.2C16.3843 49.1408 17.1492 49.9057 18.09 50.385C18.481 50.5843 19.0415 50.7466 20.1376 50.8361C21.2628 50.9281 22.7185 50.93 24.86 50.93H35.86C38.0014 50.93 39.4572 50.9281 40.5824 50.8361C41.6784 50.7466 42.2389 50.5843 42.6299 50.385C43.5708 49.9057 44.3357 49.1408 44.815 48.2C45.0142 47.809 45.1766 47.2485 45.2661 46.1524C45.358 45.0272 45.36 43.5715 45.36 41.43V23.43H40.36C36.2178 23.43 32.86 20.0721 32.86 15.93V10.93ZM44.2599 18.43C43.9595 18.0747 43.4797 17.5852 42.5775 16.6831L39.6069 13.7125C38.7047 12.8103 38.2153 12.3305 37.86 12.0301V15.93C37.86 17.3107 38.9793 18.43 40.36 18.43H44.2599Z" fill="#12131A"/>
</svg>
