<svg width="56" height="42" viewBox="0 0 56 42" fill="none" xmlns="http://www.w3.org/2000/svg">
<path d="M47.1024 5.75759H32.8213V0.0679321H0.579956V34.2059H6.26961C6.26961 36.2178 7.06887 38.1474 8.49156 39.5701C9.91425 40.9928 11.8438 41.7921 13.8558 41.7921C15.8678 41.7921 17.7974 40.9928 19.2201 39.5701C20.6428 38.1474 21.442 36.2178 21.442 34.2059H34.7179C34.7179 36.2178 35.5171 38.1474 36.9398 39.5701C38.3625 40.9928 40.2921 41.7921 42.3041 41.7921C44.3161 41.7921 46.2457 40.9928 47.6684 39.5701C49.091 38.1474 49.8903 36.2178 49.8903 34.2059H55.58V18.199L47.1024 5.75759ZM50.2696 17.1369H42.3041V9.55069H45.092L50.2696 17.1369ZM13.8558 37.999C12.8498 37.999 11.885 37.5993 11.1737 36.888C10.4623 36.1766 10.0627 35.2119 10.0627 34.2059C10.0616 33.7642 10.1453 33.3264 10.3093 32.9162C10.5732 32.1861 11.0548 31.5546 11.689 31.107C12.3232 30.6593 13.0795 30.417 13.8558 30.4128C14.6478 30.4147 15.4193 30.6644 16.0621 31.127C16.7049 31.5896 17.1869 32.2417 17.4403 32.9921C17.5824 33.3808 17.6531 33.792 17.6489 34.2059C17.6489 35.2119 17.2493 36.1766 16.5379 36.888C15.8266 37.5993 14.8618 37.999 13.8558 37.999ZM29.0282 30.4128H20.4179C20.2851 30.1852 20.1334 29.9766 19.9817 29.749L19.8869 29.6162C19.6719 29.3231 19.4306 29.0501 19.1662 28.8007L18.9386 28.5162C18.7513 28.3417 18.5551 28.1771 18.3506 28.0231L18.0282 27.8145L17.4403 27.4541L17.061 27.2645L16.4351 26.999L16.0369 26.8662L15.3162 26.6955H14.9748C14.2342 26.5692 13.4775 26.5692 12.7369 26.6955H12.3765L11.6748 26.8662L11.2575 27.0179L10.6886 27.2455L10.2334 27.4731L9.75927 27.7576C9.60652 27.8477 9.46071 27.9492 9.32306 28.061L8.96272 28.5162L8.48858 28.9334C8.11731 29.3222 7.78685 29.748 7.50237 30.2041L7.29375 30.4128H4.37306V3.86104H29.0282V30.4128ZM42.3041 37.999C41.2981 37.999 40.3333 37.5993 39.622 36.888C38.9106 36.1766 38.511 35.2119 38.511 34.2059C38.5099 33.7642 38.5936 33.3264 38.7575 32.9162C39.0215 32.1861 39.5031 31.5546 40.1373 31.107C40.7715 30.6593 41.5278 30.417 42.3041 30.4128C43.0961 30.4147 43.8676 30.6644 44.5104 31.127C45.1532 31.5896 45.6352 32.2417 45.8886 32.9921C46.0307 33.3808 46.1014 33.792 46.0972 34.2059C46.0972 35.2119 45.6976 36.1766 44.9862 36.888C44.2749 37.5993 43.3101 37.999 42.3041 37.999ZM48.8662 30.4128C48.7334 30.1852 48.5817 29.9766 48.43 29.749L48.3351 29.6162C48.1201 29.3231 47.8789 29.0501 47.6144 28.8007L47.3869 28.5162C47.1996 28.3417 47.0033 28.1771 46.7989 28.0231L46.4765 27.8145L45.8886 27.4541L45.5093 27.2645L44.8834 26.999L44.4851 26.8662L43.7644 26.6955H43.4231C42.6824 26.5692 41.9258 26.5692 41.1851 26.6955H40.8248L40.1231 26.8662L39.7058 27.0179L39.1369 27.2455L38.6817 27.4731L38.2075 27.7576C38.0548 27.8477 37.909 27.9492 37.7713 28.061L37.411 28.3455L36.9369 28.7628C36.5656 29.1515 36.2351 29.5773 35.9506 30.0334L35.8179 30.2421H32.8213V9.55069H38.511V20.93H51.7869V30.4128H48.8662ZM17.6489 13.3438H21.442V17.1369H17.6489V20.93H13.8558V17.1369H10.0627V13.3438H13.8558V9.55069H17.6489V13.3438Z" fill="black"/>
</svg>
