<svg width="57" height="57" viewBox="0 0 57 57" fill="none" xmlns="http://www.w3.org/2000/svg">
<g id="&#240;&#159;&#166;&#134; icon &#34;fingerprint&#34;">
<path id="Vector" d="M42.2987 10.6162C42.1087 10.6162 41.9187 10.5687 41.7525 10.4737C37.1925 8.1225 33.25 7.125 28.5237 7.125C23.8212 7.125 19.3562 8.24125 15.295 10.4737C14.725 10.7825 14.0125 10.5687 13.68 9.99875C13.3712 9.42875 13.585 8.6925 14.155 8.38375C18.5725 5.985 23.4175 4.75 28.5237 4.75C33.5825 4.75 38 5.86625 42.845 8.36C43.4387 8.66875 43.6525 9.38125 43.3437 9.95125C43.13 10.3787 42.7262 10.6162 42.2987 10.6162ZM8.31246 23.085C8.07496 23.085 7.83746 23.0137 7.62371 22.8712C7.07746 22.4912 6.95871 21.755 7.33871 21.2087C9.68996 17.8837 12.6825 15.2712 16.245 13.4425C23.7025 9.595 33.25 9.57125 40.7312 13.4187C44.2937 15.2475 47.2862 17.8362 49.6375 21.1375C50.0175 21.66 49.8987 22.42 49.3525 22.8C48.8062 23.18 48.07 23.0612 47.69 22.515C45.5525 19.5225 42.845 17.1712 39.6387 15.5325C32.8225 12.0412 24.1062 12.0412 17.3137 15.5562C14.0837 17.2187 11.3762 19.5937 9.23871 22.5862C9.04871 22.9187 8.69246 23.085 8.31246 23.085ZM23.1562 51.7512C22.8475 51.7512 22.5387 51.6325 22.325 51.395C20.2587 49.3287 19.1425 47.9987 17.5512 45.125C15.9125 42.2037 15.0575 38.6412 15.0575 34.8175C15.0575 27.7637 21.09 22.0162 28.5 22.0162C35.91 22.0162 41.9425 27.7637 41.9425 34.8175C41.9425 35.4825 41.42 36.005 40.755 36.005C40.09 36.005 39.5675 35.4825 39.5675 34.8175C39.5675 29.07 34.6037 24.3912 28.5 24.3912C22.3962 24.3912 17.4325 29.07 17.4325 34.8175C17.4325 38.2375 18.1925 41.3962 19.6412 43.9612C21.1612 46.6925 22.2062 47.8562 24.035 49.7087C24.4862 50.1837 24.4862 50.92 24.035 51.395C23.7737 51.6325 23.465 51.7512 23.1562 51.7512ZM40.185 47.3575C37.3587 47.3575 34.865 46.645 32.8225 45.2437C29.2837 42.845 27.17 38.95 27.17 34.8175C27.17 34.1525 27.6925 33.63 28.3575 33.63C29.0225 33.63 29.545 34.1525 29.545 34.8175C29.545 38.1662 31.255 41.325 34.1525 43.2725C35.8387 44.4125 37.81 44.9587 40.185 44.9587C40.755 44.9587 41.705 44.8875 42.655 44.7212C43.2962 44.6025 43.9137 45.03 44.0325 45.695C44.1512 46.3362 43.7237 46.9537 43.0587 47.0725C41.705 47.3337 40.5175 47.3575 40.185 47.3575ZM35.4112 52.25C35.3162 52.25 35.1975 52.2262 35.1025 52.2025C31.3262 51.1575 28.8562 49.7562 26.2675 47.215C22.9425 43.9137 21.1137 39.52 21.1137 34.8175C21.1137 30.97 24.3912 27.835 28.4287 27.835C32.4662 27.835 35.7437 30.97 35.7437 34.8175C35.7437 37.3587 37.9525 39.425 40.6837 39.425C43.415 39.425 45.6237 37.3587 45.6237 34.8175C45.6237 25.8637 37.905 18.5962 28.405 18.5962C21.66 18.5962 15.485 22.3487 12.7062 28.1675C11.78 30.0912 11.305 32.3475 11.305 34.8175C11.305 36.67 11.4712 39.5912 12.8962 43.3912C13.1337 44.0087 12.825 44.6975 12.2075 44.9112C11.59 45.1487 10.9012 44.8162 10.6875 44.2225C9.52371 41.1112 8.95371 38.0237 8.95371 34.8175C8.95371 31.9675 9.49996 29.3787 10.5687 27.1225C13.7275 20.4962 20.7337 16.1975 28.405 16.1975C39.2112 16.1975 47.9987 24.5337 47.9987 34.7937C47.9987 38.6412 44.7212 41.7762 40.6837 41.7762C36.6462 41.7762 33.3687 38.6412 33.3687 34.7937C33.3687 32.2525 31.16 30.1862 28.4287 30.1862C25.6975 30.1862 23.4887 32.2525 23.4887 34.7937C23.4887 38.855 25.0562 42.655 27.93 45.505C30.1862 47.7375 32.3475 48.9725 35.6962 49.8987C36.3375 50.065 36.6937 50.73 36.5275 51.3475C36.4087 51.8937 35.91 52.25 35.4112 52.25Z" fill="#083B7F"/>
</g>
</svg>
