<svg width="39" height="39" viewBox="0 0 39 39" fill="none" xmlns="http://www.w3.org/2000/svg">
<g id="&#240;&#159;&#166;&#134; icon &#34;home&#34;">
<g id="&#240;&#159;&#166;&#134; icon &#34;person outline&#34;">
<g id="Group">
<path id="Vector" d="M19.5 17.875C20.7856 17.875 22.0423 17.4938 23.1112 16.7796C24.1802 16.0653 25.0133 15.0502 25.5052 13.8624C25.9972 12.6747 26.1259 11.3678 25.8751 10.1069C25.6243 8.84604 25.0053 7.68785 24.0962 6.77881C23.1872 5.86977 22.029 5.2507 20.7681 4.9999C19.5072 4.74909 18.2003 4.87782 17.0126 5.36979C15.8249 5.86176 14.8097 6.69488 14.0955 7.7638C13.3812 8.83272 13 10.0894 13 11.375C13 13.0989 13.6848 14.7522 14.9038 15.9712C16.1228 17.1902 17.7761 17.875 19.5 17.875ZM19.5 8.125C20.1428 8.125 20.7712 8.31561 21.3056 8.67273C21.8401 9.02984 22.2567 9.53742 22.5026 10.1313C22.7486 10.7251 22.813 11.3786 22.6876 12.009C22.5622 12.6395 22.2526 13.2186 21.7981 13.6731C21.3436 14.1276 20.7645 14.4372 20.1341 14.5626C19.5036 14.688 18.8502 14.6236 18.2563 14.3776C17.6625 14.1316 17.1549 13.7151 16.7978 13.1806C16.4406 12.6461 16.25 12.0178 16.25 11.375C16.25 10.5131 16.5924 9.6864 17.2019 9.07691C17.8114 8.46741 18.6381 8.125 19.5 8.125Z" fill="#AFB1B4"/>
<path id="Vector_2" d="M19.5 21.125C16.4832 21.125 13.5899 22.3234 11.4567 24.4567C9.32346 26.5899 8.12503 29.4832 8.12503 32.5C8.12503 32.931 8.29624 33.3443 8.60098 33.649C8.90573 33.9538 9.31905 34.125 9.75003 34.125C10.181 34.125 10.5943 33.9538 10.8991 33.649C11.2038 33.3443 11.375 32.931 11.375 32.5C11.375 30.3451 12.2311 28.2785 13.7548 26.7548C15.2785 25.231 17.3451 24.375 19.5 24.375C21.6549 24.375 23.7215 25.231 25.2453 26.7548C26.769 28.2785 27.625 30.3451 27.625 32.5C27.625 32.931 27.7962 33.3443 28.101 33.649C28.4057 33.9538 28.8191 34.125 29.25 34.125C29.681 34.125 30.0943 33.9538 30.3991 33.649C30.7038 33.3443 30.875 32.931 30.875 32.5C30.875 29.4832 29.6766 26.5899 27.5434 24.4567C25.4101 22.3234 22.5169 21.125 19.5 21.125Z" fill="#AFB1B4"/>
</g>
</g>
</g>
</svg>
