<svg width="60" height="54" viewBox="0 0 60 54" fill="none" xmlns="http://www.w3.org/2000/svg">
<path id="Vector" d="M53.0769 7.38461H45.0808L41.149 1.48846C40.9384 1.17274 40.6531 0.913855 40.3185 0.734728C39.9839 0.5556 39.6103 0.461766 39.2308 0.461538H20.7692C20.3897 0.461766 20.0161 0.5556 19.6815 0.734728C19.3469 0.913855 19.0616 1.17274 18.851 1.48846L14.9163 7.38461H6.92308C5.08696 7.38461 3.32605 8.11401 2.02772 9.41234C0.729394 10.7107 0 12.4716 0 14.3077V46.6154C0 48.4515 0.729394 50.2124 2.02772 51.5107C3.32605 52.8091 5.08696 53.5385 6.92308 53.5385H53.0769C54.913 53.5385 56.674 52.8091 57.9723 51.5107C59.2706 50.2124 60 48.4515 60 46.6154V14.3077C60 12.4716 59.2706 10.7107 57.9723 9.41234C56.674 8.11401 54.913 7.38461 53.0769 7.38461ZM55.3846 46.6154C55.3846 47.2274 55.1415 47.8144 54.7087 48.2472C54.2759 48.6799 53.689 48.9231 53.0769 48.9231H6.92308C6.31104 48.9231 5.72407 48.6799 5.29129 48.2472C4.85852 47.8144 4.61538 47.2274 4.61538 46.6154V14.3077C4.61538 13.6957 4.85852 13.1087 5.29129 12.6759C5.72407 12.2431 6.31104 12 6.92308 12H16.1538C16.5339 12.0002 16.9081 11.9066 17.2432 11.7275C17.5784 11.5483 17.8641 11.2892 18.075 10.9731L22.0038 5.07692H37.9933L41.925 10.9731C42.1359 11.2892 42.4216 11.5483 42.7568 11.7275C43.0919 11.9066 43.4661 12.0002 43.8462 12H53.0769C53.689 12 54.2759 12.2431 54.7087 12.6759C55.1415 13.1087 55.3846 13.6957 55.3846 14.3077V46.6154ZM30 16.6154C27.4897 16.6154 25.0358 17.3598 22.9485 18.7544C20.8613 20.1491 19.2345 22.1313 18.2738 24.4506C17.3132 26.7698 17.0618 29.3218 17.5516 31.7838C18.0413 34.2459 19.2501 36.5075 21.0252 38.2825C22.8002 40.0576 25.0618 41.2664 27.5239 41.7561C29.9859 42.2459 32.5379 41.9945 34.8571 41.0339C37.1764 40.0732 39.1586 38.4464 40.5533 36.3592C41.9479 34.2719 42.6923 31.818 42.6923 29.3077C42.6885 25.9427 41.35 22.7165 38.9706 20.3371C36.5912 17.9576 33.365 16.6192 30 16.6154ZM30 37.3846C28.4025 37.3846 26.8409 36.9109 25.5127 36.0234C24.1845 35.1359 23.1492 33.8745 22.5379 32.3986C21.9266 30.9227 21.7666 29.2987 22.0783 27.732C22.3899 26.1652 23.1592 24.726 24.2888 23.5964C25.4183 22.4669 26.8575 21.6976 28.4243 21.386C29.991 21.0743 31.615 21.2343 33.0909 21.8456C34.5668 22.4569 35.8282 23.4921 36.7157 24.8204C37.6032 26.1486 38.0769 27.7102 38.0769 29.3077C38.0769 31.4498 37.226 33.5042 35.7113 35.0189C34.1965 36.5337 32.1421 37.3846 30 37.3846Z" fill="black"/>
</svg>
