<svg xmlns="http://www.w3.org/2000/svg" xmlns:xlink="http://www.w3.org/1999/xlink" width="500" zoomAndPan="magnify" viewBox="0 0 375 374.999991" height="500" preserveAspectRatio="xMidYMid meet" version="1.0"><defs><g/><clipPath id="1d2b8fb417"><path d="M 129.84375 135 L 209 135 L 209 209.828125 L 129.84375 209.828125 Z M 129.84375 135 " clip-rule="nonzero"/></clipPath><clipPath id="8d9e92e784"><path d="M 165 94.527344 L 245.144531 94.527344 L 245.144531 160 L 165 160 Z M 165 94.527344 " clip-rule="nonzero"/></clipPath></defs><g clip-path="url(#1d2b8fb417)"><path fill="#7bc1b7" d="M 203.683594 183.410156 C 202.019531 181.742188 200.484375 179.960938 199.078125 178.070312 L 199.078125 189.074219 C 199.09375 189.851562 199.03125 190.625 198.894531 191.386719 C 198.757812 192.152344 198.542969 192.894531 198.257812 193.617188 C 197.972656 194.339844 197.617188 195.027344 197.191406 195.679688 C 196.769531 196.332031 196.285156 196.933594 195.742188 197.488281 C 195.195312 198.042969 194.605469 198.539062 193.960938 198.976562 C 193.316406 199.414062 192.636719 199.78125 191.921875 200.082031 C 191.207031 200.386719 190.464844 200.613281 189.703125 200.765625 C 188.941406 200.917969 188.171875 200.996094 187.394531 200.996094 C 186.617188 200.996094 185.847656 200.917969 185.085938 200.765625 C 184.324219 200.613281 183.585938 200.386719 182.871094 200.082031 C 182.152344 199.78125 181.472656 199.414062 180.832031 198.976562 C 180.1875 198.539062 179.59375 198.042969 179.050781 197.488281 C 178.507812 196.933594 178.023438 196.332031 177.597656 195.679688 C 177.175781 195.027344 176.820312 194.339844 176.535156 193.617188 C 176.246094 192.894531 176.035156 192.152344 175.898438 191.386719 C 175.757812 190.625 175.699219 189.851562 175.714844 189.074219 L 175.714844 163.757812 L 150.40625 163.757812 C 149.792969 163.757812 149.183594 163.710938 148.574219 163.613281 C 147.96875 163.519531 147.375 163.375 146.789062 163.1875 C 146.207031 162.996094 145.640625 162.761719 145.09375 162.480469 C 144.546875 162.203125 144.027344 161.882812 143.53125 161.519531 C 143.035156 161.160156 142.570312 160.761719 142.136719 160.328125 C 141.703125 159.890625 141.304688 159.425781 140.945312 158.929688 C 140.585938 158.429688 140.265625 157.910156 139.988281 157.359375 C 139.710938 156.8125 139.476562 156.246094 139.289062 155.664062 C 139.101562 155.078125 138.960938 154.484375 138.867188 153.875 C 138.773438 153.269531 138.726562 152.660156 138.726562 152.042969 C 138.730469 151.429688 138.78125 150.820312 138.878906 150.214844 C 138.976562 149.609375 139.121094 149.015625 139.3125 148.429688 C 139.507812 147.847656 139.742188 147.28125 140.023438 146.738281 C 140.304688 146.191406 140.628906 145.671875 140.992188 145.175781 C 141.355469 144.679688 141.753906 144.21875 142.191406 143.785156 C 142.625 143.355469 143.09375 142.957031 143.59375 142.601562 L 144.476562 141.964844 C 143.335938 141.011719 142.273438 139.980469 141.292969 138.863281 C 140.25 137.679688 139.277344 136.445312 138.367188 135.15625 L 137.9375 135.476562 C 137.070312 136.125 136.261719 136.839844 135.507812 137.617188 C 134.753906 138.394531 134.066406 139.222656 133.441406 140.109375 C 132.816406 140.992188 132.265625 141.921875 131.785156 142.890625 C 131.308594 143.863281 130.90625 144.863281 130.585938 145.898438 C 130.261719 146.929688 130.023438 147.984375 129.867188 149.054688 C 129.707031 150.125 129.632812 151.203125 129.644531 152.285156 C 129.65625 153.367188 129.75 154.441406 129.929688 155.511719 C 130.109375 156.578125 130.367188 157.625 130.710938 158.652344 C 131.054688 159.679688 131.476562 160.671875 131.972656 161.632812 C 132.472656 162.59375 133.039062 163.511719 133.683594 164.382812 C 134.324219 165.253906 135.027344 166.074219 135.796875 166.835938 C 136.566406 167.597656 137.390625 168.292969 138.269531 168.925781 C 139.148438 169.558594 140.070312 170.121094 141.035156 170.609375 C 142 171.097656 143 171.507812 144.03125 171.839844 C 145.058594 172.171875 146.109375 172.425781 147.179688 172.59375 C 148.25 172.761719 149.324219 172.84375 150.40625 172.84375 L 166.628906 172.84375 L 166.628906 189.054688 C 166.617188 189.742188 166.640625 190.429688 166.699219 191.113281 C 166.753906 191.796875 166.847656 192.476562 166.972656 193.152344 C 167.097656 193.828125 167.253906 194.496094 167.445312 195.15625 C 167.636719 195.816406 167.859375 196.464844 168.117188 197.101562 C 168.371094 197.738281 168.660156 198.363281 168.976562 198.972656 C 169.292969 199.578125 169.640625 200.171875 170.015625 200.746094 C 170.394531 201.320312 170.796875 201.875 171.226562 202.410156 C 171.660156 202.945312 172.117188 203.457031 172.597656 203.945312 C 173.078125 204.4375 173.585938 204.898438 174.113281 205.339844 C 174.640625 205.777344 175.1875 206.191406 175.757812 206.574219 C 176.328125 206.960938 176.914062 207.316406 177.515625 207.644531 C 178.121094 207.96875 178.742188 208.265625 179.375 208.53125 C 180.007812 208.796875 180.652344 209.027344 181.308594 209.230469 C 181.964844 209.433594 182.632812 209.601562 183.304688 209.734375 C 183.976562 209.871094 184.65625 209.972656 185.339844 210.039062 C 186.023438 210.109375 186.707031 210.140625 187.394531 210.140625 C 188.082031 210.140625 188.769531 210.109375 189.449219 210.039062 C 190.132812 209.972656 190.8125 209.871094 191.488281 209.734375 C 192.160156 209.601562 192.824219 209.433594 193.480469 209.230469 C 194.136719 209.027344 194.785156 208.796875 195.417969 208.53125 C 196.050781 208.265625 196.667969 207.96875 197.273438 207.644531 C 197.878906 207.316406 198.464844 206.960938 199.035156 206.574219 C 199.601562 206.191406 200.152344 205.777344 200.679688 205.339844 C 201.207031 204.898438 201.710938 204.4375 202.195312 203.945312 C 202.675781 203.457031 203.132812 202.945312 203.5625 202.410156 C 203.996094 201.875 204.398438 201.320312 204.773438 200.746094 C 205.152344 200.171875 205.496094 199.578125 205.816406 198.972656 C 206.132812 198.363281 206.417969 197.738281 206.675781 197.101562 C 206.929688 196.464844 207.152344 195.816406 207.34375 195.15625 C 207.535156 194.496094 207.695312 193.828125 207.820312 193.152344 C 207.945312 192.476562 208.035156 191.796875 208.09375 191.113281 C 208.152344 190.429688 208.175781 189.742188 208.164062 189.054688 L 208.164062 187.191406 C 206.566406 186.054688 205.074219 184.792969 203.683594 183.410156 Z M 203.683594 183.410156 " fill-opacity="1" fill-rule="nonzero"/></g><g clip-path="url(#8d9e92e784)"><path fill="#0b8fac" d="M 168.589844 135.3125 C 167.898438 136.925781 166.941406 138.363281 165.71875 139.621094 L 166.019531 140.304688 L 166.019531 140.375 L 175.714844 140.375 L 175.714844 115.089844 C 175.730469 114.332031 175.816406 113.582031 175.976562 112.84375 C 176.136719 112.101562 176.371094 111.386719 176.667969 110.691406 C 176.96875 109.996094 177.335938 109.335938 177.761719 108.710938 C 178.191406 108.085938 178.675781 107.507812 179.21875 106.980469 C 179.757812 106.449219 180.34375 105.976562 180.976562 105.558594 C 181.609375 105.144531 182.277344 104.792969 182.980469 104.507812 C 183.679688 104.21875 184.402344 104.003906 185.144531 103.859375 C 185.886719 103.710938 186.636719 103.640625 187.394531 103.640625 C 188.152344 103.640625 188.902344 103.710938 189.644531 103.859375 C 190.390625 104.003906 191.113281 104.21875 191.8125 104.507812 C 192.511719 104.792969 193.179688 105.144531 193.8125 105.558594 C 194.445312 105.976562 195.03125 106.449219 195.574219 106.980469 C 196.113281 107.507812 196.597656 108.085938 197.027344 108.710938 C 197.457031 109.335938 197.820312 109.996094 198.121094 110.691406 C 198.421875 111.386719 198.652344 112.101562 198.8125 112.84375 C 198.972656 113.582031 199.0625 114.332031 199.078125 115.089844 L 199.078125 140.394531 L 203.421875 140.394531 C 204.871094 139.695312 206.398438 139.34375 208.007812 139.34375 C 209.617188 139.34375 211.144531 139.695312 212.59375 140.394531 L 224.375 140.394531 C 225.140625 140.394531 225.902344 140.472656 226.652344 140.621094 C 227.402344 140.773438 228.132812 140.992188 228.84375 141.289062 C 229.550781 141.582031 230.222656 141.941406 230.859375 142.367188 C 231.496094 142.792969 232.085938 143.277344 232.628906 143.820312 C 233.171875 144.363281 233.65625 144.953125 234.082031 145.589844 C 234.507812 146.226562 234.867188 146.898438 235.160156 147.605469 C 235.457031 148.316406 235.675781 149.046875 235.828125 149.796875 C 235.976562 150.546875 236.054688 151.308594 236.054688 152.074219 C 236.054688 152.785156 235.988281 153.492188 235.859375 154.1875 C 239.15625 154.84375 241.921875 156.136719 243.550781 159.03125 C 243.636719 159.183594 243.710938 159.34375 243.785156 159.511719 L 244.09375 158.589844 C 244.351562 157.8125 244.558594 157.023438 244.722656 156.222656 C 244.886719 155.421875 245.003906 154.609375 245.070312 153.796875 C 245.136719 152.980469 245.15625 152.164062 245.128906 151.34375 C 245.097656 150.527344 245.023438 149.714844 244.898438 148.90625 C 244.769531 148.09375 244.597656 147.296875 244.378906 146.507812 C 244.160156 145.71875 243.894531 144.945312 243.582031 144.191406 C 243.273438 143.433594 242.917969 142.695312 242.519531 141.980469 C 242.121094 141.265625 241.683594 140.578125 241.203125 139.914062 C 240.722656 139.25 240.207031 138.617188 239.652344 138.015625 C 239.097656 137.414062 238.507812 136.847656 237.886719 136.3125 C 237.265625 135.78125 236.613281 135.285156 235.933594 134.832031 C 235.253906 134.375 234.550781 133.960938 233.820312 133.589844 C 233.09375 133.21875 232.34375 132.890625 231.574219 132.605469 C 230.808594 132.320312 230.027344 132.082031 229.230469 131.894531 C 228.433594 131.703125 227.628906 131.558594 226.816406 131.460938 C 226.003906 131.367188 225.1875 131.316406 224.371094 131.316406 L 208.164062 131.316406 L 208.164062 115.089844 C 208.152344 114.414062 208.109375 113.742188 208.035156 113.074219 C 207.960938 112.402344 207.851562 111.738281 207.710938 111.082031 C 207.570312 110.421875 207.398438 109.769531 207.195312 109.128906 C 206.992188 108.488281 206.757812 107.855469 206.492188 107.238281 C 206.230469 106.617188 205.933594 106.011719 205.609375 105.421875 C 205.285156 104.832031 204.933594 104.257812 204.554688 103.699219 C 204.175781 103.144531 203.769531 102.605469 203.339844 102.089844 C 202.90625 101.574219 202.449219 101.078125 201.972656 100.605469 C 201.492188 100.132812 200.988281 99.683594 200.464844 99.261719 C 199.941406 98.835938 199.398438 98.4375 198.835938 98.066406 C 198.273438 97.695312 197.695312 97.355469 197.101562 97.039062 C 196.503906 96.722656 195.894531 96.4375 195.269531 96.183594 C 194.648438 95.929688 194.015625 95.703125 193.367188 95.507812 C 192.722656 95.316406 192.070312 95.152344 191.410156 95.023438 C 190.75 94.894531 190.082031 94.796875 189.410156 94.730469 C 188.742188 94.664062 188.070312 94.632812 187.394531 94.632812 C 186.722656 94.632812 186.050781 94.664062 185.378906 94.730469 C 184.707031 94.796875 184.042969 94.894531 183.382812 95.023438 C 182.722656 95.152344 182.066406 95.316406 181.421875 95.507812 C 180.777344 95.703125 180.144531 95.929688 179.519531 96.183594 C 178.894531 96.4375 178.285156 96.722656 177.691406 97.039062 C 177.09375 97.355469 176.515625 97.695312 175.953125 98.066406 C 175.390625 98.4375 174.847656 98.835938 174.324219 99.261719 C 173.800781 99.683594 173.300781 100.132812 172.820312 100.605469 C 172.339844 101.078125 171.882812 101.574219 171.453125 102.089844 C 171.019531 102.605469 170.613281 103.144531 170.234375 103.699219 C 169.855469 104.257812 169.503906 104.832031 169.179688 105.421875 C 168.855469 106.011719 168.5625 106.617188 168.296875 107.238281 C 168.03125 107.855469 167.796875 108.488281 167.59375 109.128906 C 167.390625 109.769531 167.21875 110.421875 167.078125 111.082031 C 166.9375 111.738281 166.832031 112.402344 166.757812 113.074219 C 166.679688 113.742188 166.636719 114.414062 166.628906 115.089844 L 166.628906 115.472656 C 169.066406 121.421875 170.464844 130.757812 168.589844 135.3125 Z M 168.589844 135.3125 " fill-opacity="1" fill-rule="nonzero"/></g><path fill="#7bc1b7" d="M 136.214844 124.65625 C 136.613281 127.648438 139.65625 132.992188 143.296875 137.097656 C 144.792969 138.78125 147.019531 140.949219 149.113281 141.71875 C 151.039062 142.378906 153.007812 142.5625 155.019531 142.265625 L 156.066406 144.65625 C 156.222656 145.019531 156.457031 145.320312 156.765625 145.558594 C 157.078125 145.800781 157.425781 145.953125 157.8125 146.015625 L 157.921875 146.367188 L 159.023438 145.886719 C 159.132812 146.199219 159.25 146.480469 159.367188 146.753906 C 160.097656 148.425781 161.070312 149.949219 162.28125 151.3125 C 164.414062 153.671875 166.984375 155.367188 169.992188 156.398438 C 174.269531 157.9375 177.863281 157.421875 181.039062 156.96875 C 186.472656 156.1875 190.066406 155.675781 195.003906 166.097656 C 197.847656 172.109375 201.605469 177.578125 205.566406 181.515625 C 210.277344 186.183594 215.285156 188.691406 220.039062 188.816406 C 227.101562 188.949219 233.3125 184.105469 238.480469 174.34375 C 241.996094 167.71875 242.871094 163.257812 241.226562 160.347656 C 239.1875 156.730469 234.167969 156.449219 228.351562 156.117188 C 223.921875 155.867188 218.914062 155.585938 214.953125 153.726562 C 215.109375 153.445312 215.246094 153.15625 215.367188 152.859375 C 215.488281 152.5625 215.589844 152.257812 215.671875 151.949219 C 215.753906 151.636719 215.816406 151.324219 215.863281 151.007812 C 215.90625 150.6875 215.933594 150.371094 215.941406 150.050781 C 215.945312 149.730469 215.933594 149.410156 215.898438 149.089844 C 215.867188 148.769531 215.816406 148.457031 215.742188 148.144531 C 215.671875 147.832031 215.582031 147.523438 215.472656 147.222656 C 215.363281 146.917969 215.238281 146.625 215.09375 146.339844 C 214.949219 146.054688 214.789062 145.777344 214.609375 145.511719 C 214.433594 145.242188 214.238281 144.988281 214.03125 144.746094 C 213.820312 144.503906 213.597656 144.273438 213.359375 144.058594 C 213.125 143.839844 212.875 143.640625 212.613281 143.453125 C 212.351562 143.269531 212.078125 143.097656 211.796875 142.945312 C 211.515625 142.792969 211.226562 142.660156 210.925781 142.542969 C 210.628906 142.425781 210.324219 142.328125 210.011719 142.246094 C 209.703125 142.164062 209.386719 142.105469 209.070312 142.0625 C 208.753906 142.019531 208.433594 142 208.113281 141.996094 C 207.792969 141.992188 207.472656 142.007812 207.152344 142.042969 C 206.835938 142.082031 206.519531 142.136719 206.207031 142.210938 C 205.894531 142.285156 205.589844 142.375 205.289062 142.488281 C 204.988281 142.597656 204.695312 142.730469 204.410156 142.875 C 204.125 143.023438 203.851562 143.1875 203.585938 143.367188 C 203.320312 143.546875 203.066406 143.742188 202.828125 143.957031 C 202.585938 144.167969 202.359375 144.390625 202.144531 144.628906 C 201.929688 144.871094 201.730469 145.121094 201.546875 145.382812 C 201.367188 145.648438 201.199219 145.921875 201.050781 146.203125 C 200.898438 146.488281 200.765625 146.777344 200.652344 147.078125 C 200.539062 147.378906 200.441406 147.683594 200.363281 147.996094 C 200.289062 148.304688 200.230469 148.621094 200.191406 148.9375 C 200.152344 149.257812 200.132812 149.578125 200.132812 149.898438 C 200.132812 150.21875 200.152344 150.539062 200.191406 150.855469 C 200.230469 151.175781 200.285156 151.488281 200.363281 151.800781 C 200.441406 152.113281 200.535156 152.417969 200.652344 152.714844 C 200.765625 153.015625 200.898438 153.308594 201.046875 153.589844 C 201.195312 153.875 201.363281 154.148438 201.546875 154.410156 C 201.730469 154.675781 201.925781 154.925781 202.140625 155.164062 C 202.355469 155.402344 202.582031 155.628906 202.824219 155.839844 C 203.0625 156.050781 203.316406 156.25 203.582031 156.429688 C 203.847656 156.609375 204.121094 156.773438 204.40625 156.921875 C 204.691406 157.070312 204.984375 157.199219 205.285156 157.308594 C 205.585938 157.421875 205.890625 157.515625 206.203125 157.589844 C 206.515625 157.664062 206.832031 157.71875 207.148438 157.753906 C 207.46875 157.789062 207.789062 157.804688 208.109375 157.804688 C 208.429688 157.800781 208.75 157.777344 209.066406 157.738281 C 209.382812 157.695312 209.699219 157.632812 210.007812 157.554688 C 210.320312 157.472656 210.625 157.375 210.921875 157.257812 C 211.222656 157.140625 211.511719 157.007812 211.792969 156.855469 C 212.074219 156.703125 212.347656 156.53125 212.609375 156.347656 C 217.394531 158.882812 223.105469 159.21875 228.175781 159.496094 C 232.796875 159.753906 237.160156 160.003906 238.285156 162.003906 C 238.96875 163.207031 239.035156 166.050781 235.496094 172.738281 C 230.957031 181.285156 225.777344 185.566406 220.117188 185.425781 C 211.023438 185.222656 202.554688 174.113281 198.078125 164.664062 C 192.0625 151.980469 186.214844 152.816406 180.554688 153.625 C 177.636719 154.039062 174.621094 154.476562 171.140625 153.222656 C 165.621094 151.242188 163.1875 147.503906 162.113281 144.546875 L 162.351562 144.449219 C 162.632812 144.324219 162.878906 144.152344 163.089844 143.929688 C 163.304688 143.707031 163.46875 143.453125 163.578125 143.167969 C 163.691406 142.882812 163.746094 142.585938 163.738281 142.277344 C 163.734375 141.972656 163.667969 141.675781 163.546875 141.394531 L 162.492188 139.003906 C 164.078125 137.726562 165.28125 136.160156 166.105469 134.300781 C 168.125 129.441406 165.515625 117.074219 162.355469 113.246094 C 160.917969 111.539062 158.742188 110.550781 155.984375 110.375 C 155.625 109.710938 155.121094 109.183594 154.46875 108.796875 C 153.820312 108.410156 153.117188 108.214844 152.359375 108.21875 C 152.019531 108.21875 151.683594 108.261719 151.355469 108.34375 C 151.023438 108.429688 150.710938 108.550781 150.410156 108.714844 C 150.113281 108.875 149.835938 109.070312 149.585938 109.300781 C 149.335938 109.53125 149.117188 109.789062 148.933594 110.074219 C 148.746094 110.359375 148.597656 110.664062 148.488281 110.984375 C 148.375 111.304688 148.304688 111.636719 148.277344 111.976562 C 148.25 112.3125 148.261719 112.652344 148.316406 112.988281 C 148.371094 113.324219 148.46875 113.648438 148.601562 113.957031 C 148.765625 114.332031 148.980469 114.671875 149.246094 114.984375 C 149.511719 115.292969 149.816406 115.558594 150.160156 115.777344 C 150.503906 115.996094 150.871094 116.160156 151.261719 116.269531 C 151.65625 116.378906 152.054688 116.429688 152.464844 116.417969 C 152.871094 116.410156 153.269531 116.339844 153.65625 116.214844 C 154.042969 116.085938 154.402344 115.90625 154.734375 115.671875 C 155.070312 115.433594 155.359375 115.15625 155.613281 114.835938 C 155.863281 114.511719 156.058594 114.164062 156.207031 113.78125 C 157.746094 113.941406 158.90625 114.445312 159.660156 115.296875 L 159.738281 115.390625 C 160.855469 116.738281 162.089844 120.203125 162.808594 124.003906 C 163.527344 127.800781 163.597656 131.441406 162.96875 132.960938 C 161.8125 135.738281 158.660156 137.605469 157.679688 138.136719 C 156.613281 138.503906 153.113281 139.542969 150.289062 138.5 C 148.746094 137.933594 146.148438 135.441406 143.824219 132.28125 C 141.496094 129.117188 139.8125 125.90625 139.582031 124.144531 C 139.425781 122.984375 139.835938 121.753906 140.804688 120.460938 C 141.117188 120.585938 141.441406 120.671875 141.777344 120.71875 C 142.113281 120.761719 142.449219 120.765625 142.785156 120.730469 C 143.121094 120.691406 143.449219 120.613281 143.765625 120.496094 C 144.082031 120.375 144.382812 120.222656 144.660156 120.027344 C 144.9375 119.835938 145.191406 119.613281 145.414062 119.359375 C 145.636719 119.105469 145.828125 118.828125 145.980469 118.527344 C 146.136719 118.226562 146.253906 117.910156 146.332031 117.582031 C 146.40625 117.253906 146.441406 116.917969 146.4375 116.578125 C 146.433594 116.242188 146.386719 115.910156 146.296875 115.582031 C 146.210938 115.253906 146.085938 114.941406 145.921875 114.648438 C 145.757812 114.351562 145.558594 114.078125 145.328125 113.832031 C 145.09375 113.585938 144.835938 113.371094 144.550781 113.1875 C 144.269531 113.003906 143.964844 112.859375 143.644531 112.75 C 143.324219 112.640625 142.996094 112.574219 142.65625 112.546875 C 142.320312 112.519531 141.984375 112.535156 141.648438 112.589844 C 141.316406 112.644531 140.996094 112.742188 140.683594 112.878906 C 140.203125 113.085938 139.78125 113.375 139.410156 113.742188 C 139.042969 114.113281 138.753906 114.539062 138.546875 115.015625 C 138.335938 115.496094 138.226562 115.996094 138.207031 116.519531 C 138.191406 117.042969 138.269531 117.546875 138.445312 118.039062 C 136.695312 120.179688 135.921875 122.460938 136.214844 124.65625 Z M 136.214844 124.65625 " fill-opacity="1" fill-rule="nonzero"/><g fill="#0b8fac" fill-opacity="1"><g transform="translate(61.778104, 250.853876)"><g><path d="M 13.28125 0 L 9.890625 -4.890625 L 6.140625 -4.890625 L 6.140625 0 L 2.078125 0 L 2.078125 -17.5625 L 9.6875 -17.5625 C 11.238281 -17.5625 12.585938 -17.300781 13.734375 -16.78125 C 14.878906 -16.269531 15.757812 -15.535156 16.375 -14.578125 C 17 -13.628906 17.3125 -12.5 17.3125 -11.1875 C 17.3125 -9.882812 17 -8.757812 16.375 -7.8125 C 15.75 -6.875 14.859375 -6.148438 13.703125 -5.640625 L 17.640625 0 Z M 13.203125 -11.1875 C 13.203125 -12.175781 12.882812 -12.929688 12.25 -13.453125 C 11.613281 -13.984375 10.679688 -14.25 9.453125 -14.25 L 6.140625 -14.25 L 6.140625 -8.125 L 9.453125 -8.125 C 10.679688 -8.125 11.613281 -8.390625 12.25 -8.921875 C 12.882812 -9.460938 13.203125 -10.21875 13.203125 -11.1875 Z M 13.203125 -11.1875 "/></g></g></g><g fill="#0b8fac" fill-opacity="1"><g transform="translate(80.210517, 250.853876)"><g><path d="M 13.65625 -3.765625 L 5.5 -3.765625 L 3.9375 0 L -0.21875 0 L 7.609375 -17.5625 L 11.625 -17.5625 L 19.46875 0 L 15.203125 0 Z M 12.375 -6.84375 L 9.578125 -13.578125 L 6.796875 -6.84375 Z M 12.375 -6.84375 "/></g></g></g><g fill="#0b8fac" fill-opacity="1"><g transform="translate(99.420351, 250.853876)"><g><path d="M 2.078125 -17.5625 L 10.0625 -17.5625 C 11.96875 -17.5625 13.648438 -17.195312 15.109375 -16.46875 C 16.578125 -15.738281 17.71875 -14.710938 18.53125 -13.390625 C 19.34375 -12.078125 19.75 -10.539062 19.75 -8.78125 C 19.75 -7.019531 19.34375 -5.476562 18.53125 -4.15625 C 17.71875 -2.84375 16.578125 -1.820312 15.109375 -1.09375 C 13.648438 -0.363281 11.96875 0 10.0625 0 L 2.078125 0 Z M 9.859375 -3.34375 C 11.617188 -3.34375 13.019531 -3.832031 14.0625 -4.8125 C 15.113281 -5.789062 15.640625 -7.113281 15.640625 -8.78125 C 15.640625 -10.457031 15.113281 -11.785156 14.0625 -12.765625 C 13.019531 -13.742188 11.617188 -14.234375 9.859375 -14.234375 L 6.140625 -14.234375 L 6.140625 -3.34375 Z M 9.859375 -3.34375 "/></g></g></g><g fill="#0b8fac" fill-opacity="1"><g transform="translate(120.134877, 250.853876)"><g><path d="M 15.6875 -3.265625 L 15.6875 0 L 2.078125 0 L 2.078125 -17.5625 L 15.359375 -17.5625 L 15.359375 -14.296875 L 6.125 -14.296875 L 6.125 -10.484375 L 14.28125 -10.484375 L 14.28125 -7.328125 L 6.125 -7.328125 L 6.125 -3.265625 Z M 15.6875 -3.265625 "/></g></g></g><g fill="#0b8fac" fill-opacity="1"><g transform="translate(136.962291, 250.853876)"><g><path d="M 18.1875 -17.5625 L 18.1875 0 L 14.859375 0 L 6.09375 -10.671875 L 6.09375 0 L 2.078125 0 L 2.078125 -17.5625 L 5.453125 -17.5625 L 14.171875 -6.90625 L 14.171875 -17.5625 Z M 18.1875 -17.5625 "/></g></g></g><g fill="#0b8fac" fill-opacity="1"><g transform="translate(157.225405, 250.853876)"><g/></g></g><g fill="#0b8fac" fill-opacity="1"><g transform="translate(164.322516, 250.853876)"><g><path d="M 18.0625 0 L 18.046875 -10.546875 L 12.875 -1.859375 L 11.046875 -1.859375 L 5.890625 -10.3125 L 5.890625 0 L 2.078125 0 L 2.078125 -17.5625 L 5.453125 -17.5625 L 12.015625 -6.65625 L 18.5 -17.5625 L 21.828125 -17.5625 L 21.875 0 Z M 18.0625 0 "/></g></g></g><g fill="#0b8fac" fill-opacity="1"><g transform="translate(188.272114, 250.853876)"><g><path d="M 13.65625 -3.765625 L 5.5 -3.765625 L 3.9375 0 L -0.21875 0 L 7.609375 -17.5625 L 11.625 -17.5625 L 19.46875 0 L 15.203125 0 Z M 12.375 -6.84375 L 9.578125 -13.578125 L 6.796875 -6.84375 Z M 12.375 -6.84375 "/></g></g></g><g fill="#0b8fac" fill-opacity="1"><g transform="translate(207.481948, 250.853876)"><g><path d="M 5.71875 -14.25 L 0.09375 -14.25 L 0.09375 -17.5625 L 15.40625 -17.5625 L 15.40625 -14.25 L 9.78125 -14.25 L 9.78125 0 L 5.71875 0 Z M 5.71875 -14.25 "/></g></g></g><g fill="#0b8fac" fill-opacity="1"><g transform="translate(222.980223, 250.853876)"><g><path d="M 13.65625 -3.765625 L 5.5 -3.765625 L 3.9375 0 L -0.21875 0 L 7.609375 -17.5625 L 11.625 -17.5625 L 19.46875 0 L 15.203125 0 Z M 12.375 -6.84375 L 9.578125 -13.578125 L 6.796875 -6.84375 Z M 12.375 -6.84375 "/></g></g></g><g fill="#0b8fac" fill-opacity="1"><g transform="translate(242.190056, 250.853876)"><g><path d="M 5.71875 -14.25 L 0.09375 -14.25 L 0.09375 -17.5625 L 15.40625 -17.5625 L 15.40625 -14.25 L 9.78125 -14.25 L 9.78125 0 L 5.71875 0 Z M 5.71875 -14.25 "/></g></g></g><g fill="#0b8fac" fill-opacity="1"><g transform="translate(257.688331, 250.853876)"><g><path d="M 18.1875 -17.5625 L 18.1875 0 L 14.125 0 L 14.125 -7.203125 L 6.140625 -7.203125 L 6.140625 0 L 2.078125 0 L 2.078125 -17.5625 L 6.140625 -17.5625 L 6.140625 -10.640625 L 14.125 -10.640625 L 14.125 -17.5625 Z M 18.1875 -17.5625 "/></g></g></g><g fill="#0b8fac" fill-opacity="1"><g transform="translate(277.951445, 250.853876)"><g><path d="M 15.6875 -3.265625 L 15.6875 0 L 2.078125 0 L 2.078125 -17.5625 L 15.359375 -17.5625 L 15.359375 -14.296875 L 6.125 -14.296875 L 6.125 -10.484375 L 14.28125 -10.484375 L 14.28125 -7.328125 L 6.125 -7.328125 L 6.125 -3.265625 Z M 15.6875 -3.265625 "/></g></g></g><g fill="#0b8fac" fill-opacity="1"><g transform="translate(294.778859, 250.853876)"><g><path d="M 13.28125 0 L 9.890625 -4.890625 L 6.140625 -4.890625 L 6.140625 0 L 2.078125 0 L 2.078125 -17.5625 L 9.6875 -17.5625 C 11.238281 -17.5625 12.585938 -17.300781 13.734375 -16.78125 C 14.878906 -16.269531 15.757812 -15.535156 16.375 -14.578125 C 17 -13.628906 17.3125 -12.5 17.3125 -11.1875 C 17.3125 -9.882812 17 -8.757812 16.375 -7.8125 C 15.75 -6.875 14.859375 -6.148438 13.703125 -5.640625 L 17.640625 0 Z M 13.203125 -11.1875 C 13.203125 -12.175781 12.882812 -12.929688 12.25 -13.453125 C 11.613281 -13.984375 10.679688 -14.25 9.453125 -14.25 L 6.140625 -14.25 L 6.140625 -8.125 L 9.453125 -8.125 C 10.679688 -8.125 11.613281 -8.390625 12.25 -8.921875 C 12.882812 -9.460938 13.203125 -10.21875 13.203125 -11.1875 Z M 13.203125 -11.1875 "/></g></g></g><g fill="#0b8fac" fill-opacity="1"><g transform="translate(126.510392, 276.422677)"><g><path d="M 7.09375 0 L 5.171875 -2.703125 C 4.960938 -2.671875 4.738281 -2.65625 4.5 -2.65625 L 2.25 -2.65625 L 2.25 0 L 1.359375 0 L 1.359375 -8.390625 L 4.5 -8.390625 C 5.570312 -8.390625 6.410156 -8.132812 7.015625 -7.625 C 7.628906 -7.113281 7.9375 -6.410156 7.9375 -5.515625 C 7.9375 -4.859375 7.769531 -4.300781 7.4375 -3.84375 C 7.101562 -3.394531 6.628906 -3.070312 6.015625 -2.875 L 8.0625 0 Z M 4.484375 -3.421875 C 5.316406 -3.421875 5.953125 -3.601562 6.390625 -3.96875 C 6.828125 -4.332031 7.046875 -4.847656 7.046875 -5.515625 C 7.046875 -6.191406 6.828125 -6.710938 6.390625 -7.078125 C 5.953125 -7.441406 5.316406 -7.625 4.484375 -7.625 L 2.25 -7.625 L 2.25 -3.421875 Z M 4.484375 -3.421875 "/></g></g></g><g fill="#0b8fac" fill-opacity="1"><g transform="translate(138.765668, 276.422677)"><g><path d="M 4.75 0.078125 C 3.65625 0.078125 2.804688 -0.234375 2.203125 -0.859375 C 1.597656 -1.484375 1.296875 -2.390625 1.296875 -3.578125 L 1.296875 -8.390625 L 2.1875 -8.390625 L 2.1875 -3.625 C 2.1875 -2.644531 2.40625 -1.914062 2.84375 -1.4375 C 3.28125 -0.957031 3.914062 -0.71875 4.75 -0.71875 C 5.582031 -0.71875 6.21875 -0.957031 6.65625 -1.4375 C 7.101562 -1.914062 7.328125 -2.644531 7.328125 -3.625 L 7.328125 -8.390625 L 8.1875 -8.390625 L 8.1875 -3.578125 C 8.1875 -2.390625 7.882812 -1.484375 7.28125 -0.859375 C 6.675781 -0.234375 5.832031 0.078125 4.75 0.078125 Z M 4.75 0.078125 "/></g></g></g><g fill="#0b8fac" fill-opacity="1"><g transform="translate(151.847335, 276.422677)"><g><path d="M 10.078125 -8.390625 L 10.078125 0 L 9.234375 0 L 9.234375 -6.71875 L 5.9375 -1.0625 L 5.515625 -1.0625 L 2.21875 -6.671875 L 2.21875 0 L 1.359375 0 L 1.359375 -8.390625 L 2.09375 -8.390625 L 5.734375 -2.171875 L 9.34375 -8.390625 Z M 10.078125 -8.390625 "/></g></g></g><g fill="#0b8fac" fill-opacity="1"><g transform="translate(166.88118, 276.422677)"><g><path d="M 6.625 -2.234375 L 1.953125 -2.234375 L 0.953125 0 L 0.03125 0 L 3.859375 -8.390625 L 4.734375 -8.390625 L 8.5625 0 L 7.640625 0 Z M 6.296875 -2.953125 L 4.296875 -7.46875 L 2.28125 -2.953125 Z M 6.296875 -2.953125 "/></g></g></g><g fill="#0b8fac" fill-opacity="1"><g transform="translate(179.064599, 276.422677)"><g><path d="M 8.375 -8.390625 L 8.375 0 L 7.5 0 L 7.5 -3.875 L 2.25 -3.875 L 2.25 0 L 1.359375 0 L 1.359375 -8.390625 L 2.25 -8.390625 L 2.25 -4.65625 L 7.5 -4.65625 L 7.5 -8.390625 Z M 8.375 -8.390625 "/></g></g></g><g fill="#0b8fac" fill-opacity="1"><g transform="translate(192.397772, 276.422677)"><g/></g></g><g fill="#0b8fac" fill-opacity="1"><g transform="translate(199.131836, 276.422677)"><g><path d="M 3.671875 0.078125 C 3.054688 0.078125 2.460938 -0.0195312 1.890625 -0.21875 C 1.316406 -0.425781 0.875 -0.691406 0.5625 -1.015625 L 0.90625 -1.703125 C 1.207031 -1.398438 1.609375 -1.15625 2.109375 -0.96875 C 2.617188 -0.78125 3.140625 -0.6875 3.671875 -0.6875 C 4.429688 -0.6875 5 -0.820312 5.375 -1.09375 C 5.75 -1.375 5.9375 -1.734375 5.9375 -2.171875 C 5.9375 -2.503906 5.832031 -2.769531 5.625 -2.96875 C 5.425781 -3.164062 5.175781 -3.316406 4.875 -3.421875 C 4.582031 -3.535156 4.171875 -3.65625 3.640625 -3.78125 C 3.015625 -3.945312 2.507812 -4.101562 2.125 -4.25 C 1.75 -4.394531 1.425781 -4.617188 1.15625 -4.921875 C 0.894531 -5.222656 0.765625 -5.632812 0.765625 -6.15625 C 0.765625 -6.582031 0.875 -6.96875 1.09375 -7.3125 C 1.320312 -7.664062 1.664062 -7.945312 2.125 -8.15625 C 2.59375 -8.363281 3.171875 -8.46875 3.859375 -8.46875 C 4.335938 -8.46875 4.804688 -8.398438 5.265625 -8.265625 C 5.722656 -8.128906 6.117188 -7.945312 6.453125 -7.71875 L 6.15625 -7.015625 C 5.800781 -7.242188 5.425781 -7.414062 5.03125 -7.53125 C 4.632812 -7.644531 4.242188 -7.703125 3.859375 -7.703125 C 3.117188 -7.703125 2.5625 -7.5625 2.1875 -7.28125 C 1.820312 -7 1.640625 -6.632812 1.640625 -6.1875 C 1.640625 -5.851562 1.738281 -5.582031 1.9375 -5.375 C 2.144531 -5.164062 2.398438 -5.007812 2.703125 -4.90625 C 3.015625 -4.800781 3.429688 -4.679688 3.953125 -4.546875 C 4.566406 -4.398438 5.0625 -4.253906 5.4375 -4.109375 C 5.820312 -3.960938 6.144531 -3.738281 6.40625 -3.4375 C 6.675781 -3.132812 6.8125 -2.726562 6.8125 -2.21875 C 6.8125 -1.789062 6.695312 -1.40625 6.46875 -1.0625 C 6.238281 -0.71875 5.882812 -0.441406 5.40625 -0.234375 C 4.9375 -0.0234375 4.359375 0.078125 3.671875 0.078125 Z M 3.671875 0.078125 "/></g></g></g><g fill="#0b8fac" fill-opacity="1"><g transform="translate(210.093644, 276.422677)"><g><path d="M 6.625 -2.234375 L 1.953125 -2.234375 L 0.953125 0 L 0.03125 0 L 3.859375 -8.390625 L 4.734375 -8.390625 L 8.5625 0 L 7.640625 0 Z M 6.296875 -2.953125 L 4.296875 -7.46875 L 2.28125 -2.953125 Z M 6.296875 -2.953125 "/></g></g></g><g fill="#0b8fac" fill-opacity="1"><g transform="translate(222.277063, 276.422677)"><g><path d="M 3.96875 -3.9375 L 2.25 -2.203125 L 2.25 0 L 1.359375 0 L 1.359375 -8.390625 L 2.25 -8.390625 L 2.25 -3.3125 L 7.171875 -8.390625 L 8.203125 -8.390625 L 4.5625 -4.59375 L 8.453125 0 L 7.390625 0 Z M 3.96875 -3.9375 "/></g></g></g><g fill="#0b8fac" fill-opacity="1"><g transform="translate(234.38862, 276.422677)"><g><path d="M 1.359375 -8.390625 L 2.25 -8.390625 L 2.25 0 L 1.359375 0 Z M 1.359375 -8.390625 "/></g></g></g><g fill="#0b8fac" fill-opacity="1"><g transform="translate(241.601739, 276.422677)"><g><path d="M 3 -7.625 L 0.046875 -7.625 L 0.046875 -8.390625 L 6.828125 -8.390625 L 6.828125 -7.625 L 3.890625 -7.625 L 3.890625 0 L 3 0 Z M 3 -7.625 "/></g></g></g></svg>