<?xml version="1.0" ?><svg viewBox="0 0 32 32" xmlns="http://www.w3.org/2000/svg"><defs><style>.cls-1{fill:none;}</style></defs><title/><g data-name="Layer 2" id="Layer_2"><path d="M17,28a1,1,0,0,1,0-2,10,10,0,1,0-8.18-4.25,1,1,0,0,1-.24,1.39,1,1,0,0,1-1.4-.24A12,12,0,1,1,17,28Z"/><path d="M9,24H4a1,1,0,0,1,0-2H8V18a1,1,0,0,1,2,0v5A1,1,0,0,1,9,24Z"/><path d="M14,20a1,1,0,0,1-.71-.29,1,1,0,0,1,0-1.42L16,15.59V11a1,1,0,0,1,2,0v5a1,1,0,0,1-.29.71l-3,3A1,1,0,0,1,14,20Z"/></g><g id="frame"><rect class="cls-1" height="32" width="32"/></g></svg>