<?xml version="1.0" ?><svg style="enable-background:new 0 0 24 24;" version="1.1" viewBox="0 0 24 24" xml:space="preserve" xmlns="http://www.w3.org/2000/svg" xmlns:xlink="http://www.w3.org/1999/xlink"><style type="text/css">
	.st0{opacity:0.2;fill:none;stroke:#000000;stroke-width:5.000000e-02;stroke-miterlimit:10;}
</style><g id="grid_system"/><g id="_icons"><g><path d="M19,10c-0.6,0-1,0.4-1,1v3c0,1.1-0.9,2-2,2H7.4l1.3-1.3c0.4-0.4,0.4-1,0-1.4s-1-0.4-1.4,0l-3,3c-0.4,0.4-0.4,1,0,1.4l3,3    C7.5,20.9,7.7,21,8,21s0.5-0.1,0.7-0.3c0.4-0.4,0.4-1,0-1.4L7.4,18H16c2.2,0,4-1.8,4-4v-3C20,10.4,19.6,10,19,10z"/><path d="M5,14c0.6,0,1-0.4,1-1v-3c0-1.1,0.9-2,2-2h8.6l-1.3,1.3c-0.4,0.4-0.4,1,0,1.4c0.2,0.2,0.5,0.3,0.7,0.3s0.5-0.1,0.7-0.3    l3-3c0.4-0.4,0.4-1,0-1.4l-3-3c-0.4-0.4-1-0.4-1.4,0s-0.4,1,0,1.4L16.6,6H8c-2.2,0-4,1.8-4,4v3C4,13.6,4.4,14,5,14z"/></g></g></svg>