<svg width="56" height="60" viewBox="0 0 56 60" fill="none" xmlns="http://www.w3.org/2000/svg">
<path d="M10.3369 2.22193C10.3369 1.40901 10.9958 0.75 11.8088 0.75C12.6217 0.75 13.2807 1.40901 13.2807 2.22193V11.0535C13.2807 11.8665 12.6217 12.5254 11.8088 12.5254C10.9958 12.5254 10.3369 11.8665 10.3369 11.0535V2.22193Z" fill="#083B7F"/>
<path d="M33.8877 2.22193C33.8877 1.40901 34.5467 0.75 35.3596 0.75C36.1726 0.75 36.8316 1.40901 36.8316 2.22193V11.0535C36.8316 11.8665 36.1726 12.5254 35.3596 12.5254C34.5467 12.5254 33.8877 11.8665 33.8877 11.0535V2.22193Z" fill="#083B7F"/>
<path fill-rule="evenodd" clip-rule="evenodd" d="M13.2807 28.7166H10.3368V31.6604H13.2807V28.7166ZM10.3368 25.7727C8.71094 25.7727 7.39297 27.0907 7.39297 28.7166V31.6604C7.39297 33.2863 8.71094 34.6043 10.3368 34.6043H13.2807C14.9066 34.6043 16.2246 33.2863 16.2246 31.6604V28.7166C16.2246 27.0907 14.9066 25.7727 13.2807 25.7727H10.3368Z" fill="#083B7F"/>
<path fill-rule="evenodd" clip-rule="evenodd" d="M25.0561 28.7166H22.1123V31.6604H25.0561V28.7166ZM22.1123 25.7727C20.4864 25.7727 19.1684 27.0907 19.1684 28.7166V31.6604C19.1684 33.2863 20.4864 34.6043 22.1123 34.6043H25.0561C26.682 34.6043 28 33.2863 28 31.6604V28.7166C28 27.0907 26.682 25.7727 25.0561 25.7727H22.1123Z" fill="#083B7F"/>
<path fill-rule="evenodd" clip-rule="evenodd" d="M36.8316 28.7166H33.8877V31.6604H36.8316V28.7166ZM33.8877 25.7727C32.2618 25.7727 30.9439 27.0907 30.9439 28.7166V31.6604C30.9439 33.2863 32.2618 34.6043 33.8877 34.6043H36.8316C38.4575 34.6043 39.7754 33.2863 39.7754 31.6604V28.7166C39.7754 27.0907 38.4575 25.7727 36.8316 25.7727H33.8877Z" fill="#083B7F"/>
<path fill-rule="evenodd" clip-rule="evenodd" d="M13.2807 40.4922H10.3368V43.4361H13.2807V40.4922ZM10.3368 37.5483C8.71094 37.5483 7.39297 38.8663 7.39297 40.4922V43.4361C7.39297 45.062 8.71094 46.3799 10.3368 46.3799H13.2807C14.9066 46.3799 16.2246 45.062 16.2246 43.4361V40.4922C16.2246 38.8663 14.9066 37.5483 13.2807 37.5483H10.3368Z" fill="#083B7F"/>
<path fill-rule="evenodd" clip-rule="evenodd" d="M25.0561 40.4922H22.1123V43.4361H25.0561V40.4922ZM22.1123 37.5483C20.4864 37.5483 19.1684 38.8663 19.1684 40.4922V43.4361C19.1684 45.062 20.4864 46.3799 22.1123 46.3799H25.0561C26.682 46.3799 28 45.062 28 43.4361V40.4922C28 38.8663 26.682 37.5483 25.0561 37.5483H22.1123Z" fill="#083B7F"/>
<path fill-rule="evenodd" clip-rule="evenodd" d="M5.92105 9.58156H41.2474C42.8733 9.58156 44.1912 10.8995 44.1912 12.5254V36.0763C45.2077 36.0763 46.1942 36.2051 47.1351 36.4472V12.5254C47.1351 9.27372 44.499 6.6377 41.2474 6.6377H5.92105C2.66935 6.6377 0.0333252 9.27372 0.0333252 12.5254V47.8517C0.0333252 51.1034 2.66935 53.7395 5.92105 53.7395H33.9912C33.4641 52.8283 33.0556 51.8399 32.7867 50.7956H5.92105C4.2952 50.7956 2.97719 49.4776 2.97719 47.8517V12.5254C2.97719 10.8995 4.2952 9.58156 5.92105 9.58156Z" fill="#083B7F"/>
<path fill-rule="evenodd" clip-rule="evenodd" d="M45.6632 22.8289H1.50526V19.885H45.6632V22.8289Z" fill="#083B7F"/>
<path fill-rule="evenodd" clip-rule="evenodd" d="M44.1912 56.6834C49.0688 56.6834 53.0228 52.7294 53.0228 47.8519C53.0228 42.9743 49.0688 39.0203 44.1912 39.0203C39.3137 39.0203 35.3597 42.9743 35.3597 47.8519C35.3597 52.7294 39.3137 56.6834 44.1912 56.6834ZM44.1912 59.6273C50.6947 59.6273 55.9667 54.3553 55.9667 47.8519C55.9667 41.3484 50.6947 36.0764 44.1912 36.0764C37.6878 36.0764 32.4158 41.3484 32.4158 47.8519C32.4158 54.3553 37.6878 59.6273 44.1912 59.6273Z" fill="#083B7F"/>
<path fill-rule="evenodd" clip-rule="evenodd" d="M44.1912 40.7551C45.0042 40.7551 45.6632 41.4141 45.6632 42.2271V48.5536L49.2716 51.0583C49.9394 51.5219 50.105 52.439 49.6413 53.1068C49.1778 53.7746 48.2607 53.9402 47.5929 53.4767L42.7193 50.0938V42.2271C42.7193 41.4141 43.3783 40.7551 44.1912 40.7551Z" fill="#083B7F"/>
</svg>
